<svg xmlns="http://www.w3.org/2000/svg" viewBox="0 0 2000 2000"><title>wuTchanKi</title><g id="Capa_2" data-name="Capa 2"><circle cx="1000" cy="1082.33" r="734.89"/><circle cx="1000" cy="1082.33" r="623.35" style="fill:#29abe2"/><path d="M1554.15,1071c17-1.15,32.17-6,44.47-17.1-77.13-40.19-152.61-96.43-226.91-164.19,25.87,1.82,38.58-9,44.47-26.23C1283,845.3,1198.64,775.2,1177.45,637.92h-51.86L1057,709.3l-57,169.4L943,709.3l-68.57-71.38H822.55C801.36,775.2,717,845.3,583.82,863.51c5.89,17.28,18.6,28,44.47,26.23-74.3,67.76-149.78,124-226.91,164.19,12.3,11.14,27.5,16,44.47,17.1,0,0-111,157.35-85.14,317C491.46,1584.14,1000,1666.23,1000,1666.23s508.54-82.09,639.29-278.21C1665.13,1228.38,1554.15,1071,1554.15,1071Z"/><path d="M1449.25,1023.14c-124.42-132-282-233.72-303.87-327.81-.05-.18-.09-.39-.14-.57-.16.09-.32.18-.48.29a42.82,42.82,0,0,0-6.59,5.43c-35.34,34.35-113.09,178.22-113.09,178.22L1000,904.56,974.91,878.7S897.17,734.83,861.83,700.48a42.82,42.82,0,0,0-6.59-5.43c-.16-.11-.32-.2-.48-.29,0,.18-.09.39-.14.57-21.82,94.09-179.45,195.82-303.87,327.81-124.67,132.27-126.18,342.07-126.18,342.07,20,39.77,63.13,74.75,123,106.25,108.23,57,271.37,102.66,452.42,144.6,181-41.94,344.19-87.59,452.42-144.6,59.88-31.5,103-66.48,123-106.25C1575.43,1365.21,1573.92,1155.41,1449.25,1023.14Z" style="fill:#4d4d4d"/><path d="M861.46,741.23c-9.58,36.15-34.84,69.83-67.57,102.33,17.22,1.62,37.29-6.11,58.45-17.4-35.26,41.8-74.59,74.32-119.15,95.12,26.75-6.55,55.37-8.1,85.33-6.07-252.17,97.28-269.3,319.26-269.3,319.26-18.65-30.1-26.27-62.21-25.83-95.78-70.27,116.47-68.67,227.84,24.19,332.77-59.88-31.5-103-66.48-123-106.25,0,0,1.51-209.8,126.18-342.07,124.42-132,282-233.72,303.87-327.81l.62-.28,3.65-1.71,2.94,7.14,15,36.19Z" style="fill:#b3b3b3"/><path d="M1138.54,741.23c9.58,36.15,34.84,69.83,67.57,102.33-17.22,1.62-37.29-6.11-58.45-17.4,35.26,41.8,74.59,74.32,119.15,95.12-26.75-6.55-55.37-8.1-85.33-6.07,252.17,97.28,269.3,319.26,269.3,319.26,18.65-30.1,26.27-62.21,25.83-95.78,70.27,116.47,68.67,227.84-24.19,332.77,59.88-31.5,103-66.48,123-106.25,0,0-1.51-209.8-126.18-342.07-124.42-132-282-233.72-303.87-327.81l-.62-.28-3.65-1.71-2.94,7.14-15,36.19Z" style="fill:#b3b3b3"/><path d="M1456,1344.46c-19.11,38.92-41.37,70.78-69,90.54,17.16-37.77,21.56-81.24,19.25-127.71-18.62,45.18-43.11,80.48-76.34,101.1H670.08c-33.23-20.62-57.72-55.92-76.34-101.1-2.31,46.47,2.09,89.94,19.25,127.71-27.66-19.76-49.92-51.62-69-90.54q-5.31,108.46,69,172.59l387,110.5,387-110.5Q1461.35,1452.93,1456,1344.46Z"/><path d="M1210.75,490.09l-47.7-102.62s-20.28-52.48-62.71-61.58C1048.26,314.73,1000,296.25,1000,296.25s-48.26,18.48-100.34,29.64C857.23,335,837,387.47,837,387.47l-47.7,102.62.38,94.64c-2.63,36.87,8.18,65.09,38.2,80.95C858,771.69,920.05,857.24,1000,931.36c80-74.12,142-159.67,172.17-265.68,30-15.86,40.83-44.08,38.2-80.95Z"/><path d="M1063,386.46c-24-2.73-88.94-22.83-96.27-25.11l-10-3.12-17.55-40.72,18.92-9.75c35.81-18.44,54-41,57.17-70.94l5.76-54,34.52,42a125.36,125.36,0,0,1,20.36,33.81l15.59-23.08,18,32.66c20.14,36.55-.77,94.6-31.38,114.72l-6.9,4.54Z"/><path d="M867.82,606.07c-11.31,14.53-16.62,44.22-16.62,44.22-.43-.16-.84-.3-1.25-.48C810.9,635.26,819.27,599,819.27,599l3.29-10.58,12.72,5C843,596.43,854,600.71,867.82,606.07Z" style="fill:#4d4d4d"/><path d="M1086.09,609.81l-1.3-1.55-62-74.84H977.2l-62,74.84-1.3,1.55s-42.76,18.24-36.48,70.13c6,49.16,57.44,156.16,113.27,198.76,3.1,2.37,6.2,4.54,9.3,6.48,3.1-1.94,6.2-4.11,9.3-6.48,55.83-42.6,107.32-149.6,113.27-198.76C1128.85,628.05,1086.09,609.81,1086.09,609.81Z" style="fill:#4d4d4d"/><path d="M1132.18,606.07c11.31,14.53,16.62,44.22,16.62,44.22.43-.16.84-.3,1.25-.48,39-14.55,30.68-50.83,30.68-50.83l-3.29-10.58-12.72,5C1157,596.43,1146,600.71,1132.18,606.07Z" style="fill:#4d4d4d"/><path d="M1195.94,446.76l-47.14-35.35-13.11-6.34s-.14-.64-.41-1.78c-2.38-9.28-15.33-52-54.89-63.71-11.63-3.42-22.69-6.16-32.66-8.33a401.42,401.42,0,0,0-47.73-7.64,401.42,401.42,0,0,0-47.73,7.64c-10,2.17-21,4.91-32.66,8.33-39.56,11.67-52.51,54.43-54.89,63.71-.27,1.14-.41,1.78-.41,1.78l-13.11,6.34-47.14,35.35-14.43,69.55,28.89,59.86,55.9,19.39L919,584.73l38.2-37.06,9.47-45L1000,490.27l33.29,12.36,9.47,45,38.2,37.06,44.62,10.83,55.9-19.39,28.89-59.86Z" style="fill:#4d4d4d"/><path d="M1086.86,335.77c-5.38,12.2-13,22.62-21.3,28.05-22.51-2.58-92.06-24.24-92.06-24.24l-5-11.54a196.27,196.27,0,0,0,18.83-11c28.17-18.77,46.91-43.51,50.56-77.81a113.6,113.6,0,0,1,11.91,17.28,79.37,79.37,0,0,1,9.21,51.7s9.51-3.56,21.62-17.47a122.27,122.27,0,0,0,8.84-11.6C1098,294.47,1095.05,317.18,1086.86,335.77Z" style="fill:#4d4d4d"/><path d="M909.92,414.26a339.23,339.23,0,0,0-45.2-11c2.38-9.28,15.33-52,54.89-63.71,11.63-3.42,22.69-6.16,32.66-8.33C936.22,344.12,907.87,372.85,909.92,414.26Z" style="fill:#b3b3b3"/><path d="M850,649.81C810.9,635.26,819.27,599,819.27,599l3.29-10.58,12.72,5C834.74,605.82,835.83,630.2,850,649.81Z" style="fill:#b3b3b3"/><path d="M990.7,878.7c-55.83-42.6-107.32-149.6-113.27-198.76-6.28-51.89,36.48-70.13,36.48-70.13l1.3-1.55c-7.71,19-13.66,48.76-3.58,89.35C926.87,759,973.5,847.32,990.7,878.7Z" style="fill:#b3b3b3"/><path d="M977.77,583.59S942.42,606.39,943,636s34.21,8.18,34.78-14.15S977.77,583.59,977.77,583.59Z" style="fill:#b3b3b3"/><path d="M1090.08,414.26a339.23,339.23,0,0,1,45.2-11c-2.38-9.28-15.33-52-54.89-63.71-11.63-3.42-22.69-6.16-32.66-8.33C1063.78,344.12,1092.13,372.85,1090.08,414.26Z" style="fill:#b3b3b3"/><path d="M1150.05,649.81c39-14.55,30.68-50.83,30.68-50.83l-3.29-10.58-12.72,5C1165.26,605.82,1164.17,630.2,1150.05,649.81Z" style="fill:#b3b3b3"/><path d="M1009.3,878.7c55.83-42.6,107.32-149.6,113.27-198.76,6.28-51.89-36.48-70.13-36.48-70.13l-1.3-1.55c7.71,19,13.66,48.76,3.58,89.35C1073.13,759,1026.5,847.32,1009.3,878.7Z" style="fill:#b3b3b3"/><path d="M1022.23,583.59s35.35,22.8,34.78,52.45-34.21,8.18-34.78-14.15S1022.23,583.59,1022.23,583.59Z" style="fill:#b3b3b3"/><polygon points="1000 470.51 979.86 470.51 979.86 541.59 1000 541.59 1020.14 541.59 1020.14 470.51 1000 470.51"/><polygon points="1000 490.28 979.86 490.28 979.86 521.82 1000 521.82 1020.14 521.82 1020.14 490.28 1000 490.28" style="fill:#29abe2"/><circle cx="894.62" cy="533.42" r="72.07"/><circle cx="894.62" cy="533.42" r="58.63" style="fill:#fff"/><circle cx="894.62" cy="533.42" r="39.86"/><circle cx="867.83" cy="522.96" r="16.63" style="fill:#fff"/><path d="M874.41,391A114.59,114.59,0,1,0,989,505.58,114.59,114.59,0,0,0,874.41,391Zm0,183.17A68.58,68.58,0,1,1,943,505.58,68.58,68.58,0,0,1,874.41,574.16Z"/><path d="M874.41,405.08a100.5,100.5,0,1,0,100.5,100.5A100.5,100.5,0,0,0,874.41,405.08Zm0,183.33a82.83,82.83,0,1,1,82.83-82.83A82.84,82.84,0,0,1,874.41,588.41Z" style="fill:#29abe2"/><circle cx="1105.38" cy="533.42" r="72.07"/><circle cx="1105.38" cy="533.42" r="58.63" style="fill:#fff"/><circle cx="1105.38" cy="533.42" r="39.86"/><circle cx="1132.17" cy="522.96" r="16.63" style="fill:#fff"/><path d="M1011,505.58A114.6,114.6,0,1,0,1125.59,391,114.59,114.59,0,0,0,1011,505.58Zm46,0a68.58,68.58,0,1,1,68.58,68.58A68.58,68.58,0,0,1,1057,505.58Z"/><path d="M1025.08,505.58a100.51,100.51,0,1,0,100.51-100.5A100.5,100.5,0,0,0,1025.08,505.58Zm17.68,0a82.83,82.83,0,1,1,82.83,82.83A82.82,82.82,0,0,1,1042.76,505.58Z" style="fill:#29abe2"/><path d="M979.86,580s-21.29,16.34-26.61,33.82-.29,27.94,11,22.81S986.7,601.64,979.86,580Z"/><path d="M1020.14,580s21.29,16.34,26.61,33.82.29,27.94-11,22.81S1013.3,601.64,1020.14,580Z"/><path d="M1049.81,256.52c-5.61,37.17-40.3,69.9-40.3,69.9l-22.17-9.37c28.17-18.77,46.91-43.51,50.56-77.81A113.6,113.6,0,0,1,1049.81,256.52Z" style="fill:#b3b3b3"/><path d="M1086.86,335.77l-15.76-6.64s10.68-13.75,9.54-38.38a122.27,122.27,0,0,0,8.84-11.6C1098,294.47,1095.05,317.18,1086.86,335.77Z" style="fill:#b3b3b3"/><path d="M962.62,329.14s32-3.89,58.19,0c-12.54-16.36-40.48-19.49-40.48-19.49Z"/><path d="M1092.06,344.24c-8.32-4.52-38.07-11.9-50.58-14.21,19.24-4.85,48-4.28,56.58-1.43S1092.06,344.24,1092.06,344.24Z"/><path d="M1396.9,1024.51c-114.24-53.89-249.83-74.14-397.56-75.25C851.6,950.37,716,970.62,601.78,1024.51c-1.55,108,15.31,224.39,48.24,348.15v89.7s90.86,35.54,349.32,35.54,349.32-35.54,349.32-35.54v-89.7C1381.58,1248.9,1398.45,1132.5,1396.9,1024.51Z"/><path d="M1206.13,1015.54c-64.45-13.59-133.64-21.17-206.79-23.72-73.16,2.55-142.35,10.13-206.8,23.72-53,11.15-102.82,26.38-148.95,46.22,4.44,98.79,18.79,193.16,47.13,281.25q20.35,3,41.73,5.43c80.62,9.28,171.45,13,266.89,14.34,95.43-1.3,186.26-5.06,266.88-14.34q21.35-2.43,41.73-5.43c28.35-88.09,42.69-182.46,47.14-281.25C1309,1041.92,1259.15,1026.69,1206.13,1015.54Z" style="fill:#29abe2"/><path d="M1286.7,1384.86c-84.15,12.61-182.42,15.73-287.36,14.41-105,1.32-203.22-1.8-287.36-14.41q-12-1.78-23.54-3.83v61.57c4.75,2.21,14.37,4.49,27.5,6.7,65.82,11.18,219.38,21.23,283.4,17.63,64,3.6,217.57-6.45,283.39-17.63,13.13-2.21,22.76-4.49,27.5-6.7V1381Q1298.67,1383.07,1286.7,1384.86Z" style="fill:#29abe2"/><path d="M677.75,1076.2c1.87,90.19,21.62,181,54.7,272.24q-21.35-2.43-41.73-5.43c-28.34-88.09-42.69-182.46-47.13-281.25,46.13-19.84,95.93-35.07,148.95-46.22Z" style="fill:aqua"/><path d="M715.94,1449.3c-13.13-2.21-22.75-4.49-27.5-6.7V1381q11.56,2,23.54,3.83Z" style="fill:aqua"/><path d="M1320.93,1076.2c-1.87,90.19-21.62,181-54.71,272.24q21.35-2.43,41.73-5.43c28.35-88.09,42.69-182.46,47.14-281.25-46.14-19.84-95.94-35.07-149-46.22Z" style="fill:aqua"/><path d="M1282.73,1449.3c13.13-2.21,22.76-4.49,27.5-6.7V1381q-11.57,2-23.53,3.83Z" style="fill:aqua"/><rect x="705.92" y="1408.39" width="26.61" height="26.61"/><rect x="764.45" y="1415.23" width="63.09" height="26.61"/><rect x="1266.15" y="1408.39" width="26.61" height="26.61" transform="translate(2558.9 2843.39) rotate(-180)"/><rect x="1171.13" y="1415.23" width="63.09" height="26.61" transform="translate(2405.35 2857.07) rotate(-180)"/><rect x="934.72" y="1421.69" width="129.23" height="26.61"/><circle cx="999.34" cy="1177.3" r="88.94"/><circle cx="999.34" cy="1177.3" r="70.69" style="fill:#fff"/><path d="M985.14,1199.19H973.88l-6.61-29.84-6.66,29.84H949.34l-9.67-39.28h8.73l6.66,28.08,6.84-28.08h10.8l6.72,28.08,6.61-28.08h8.73Z" style="fill:#29abe2"/><path d="M1016.42,1167.76v31.43h-8.85v-31.43H997v-7.85h30v7.85Z" style="fill:#29abe2"/><path d="M1029,1159.91h8.85v39.28H1029Zm10,19.23,10.62-19.23h10l-11,19.23,11.85,20h-10Z" style="fill:#29abe2"/><polygon points="337.96 1750.12 265.11 1454.24 667.85 1454.24 595.43 1750.12 337.96 1750.12"/><path d="M557.81,1702.17H500.46l-33.64-151.94-33.93,151.94H375.54l-49.25-200h44.44l33.93,142.94,34.84-142.94h54.95l34.23,142.94,33.63-142.94h44.45Z"/><path d="M637.4,1753.12c-39.44,0-81.58-24.9-81.58-94.79V1508H780.23v242.13H667.86l0-.07A166.1,166.1,0,0,1,637.4,1753.12Z"/><path d="M647,1555.93v96.69c0,6.61,3,10.52,10.51,10.52,7.81,0,22.22-5.41,31.53-10.52v-96.69h43.24v146.24H700.16l-4.5-11.11c-18,8.71-41.44,14.12-58.26,14.12-24.92,0-33.63-18.62-33.63-46.85v-102.4Z"/><polygon points="779.24 1750.12 779.24 1590.06 725.49 1590.06 725.49 1454.24 984.55 1454.24 984.55 1590.06 920.17 1590.06 920.17 1750.12 779.24 1750.12"/><path d="M872.23,1542.12v160.05h-45V1542.12H773.44v-39.94H926v39.94Z"/><path d="M984.55,1753.12c-36.19,0-63.41-8.59-83.2-26.25-21-18.78-31.71-46.08-31.71-81.15v-33.33c0-35.08,10.67-62.38,31.71-81.16,19.79-17.66,47-26.25,83.2-26.25,14.3,0,28.46,1.75,45.93,5.67l43.54,9.77-16.3,108.63,16.3,108.63-43.54,9.77C1013,1751.37,998.85,1753.12,984.55,1753.12Z"/><path d="M960.82,1646.32c0,15,6.31,21.92,23.73,21.92a124.61,124.61,0,0,0,30-3.6l5.41,36c-14.71,3.3-25.22,4.51-35.43,4.51-47.45,0-67-17.72-67-59.46v-33.33c0-41.74,19.52-59.46,67-59.46,10.21,0,20.72,1.2,35.43,4.5l-5.41,36a151.67,151.67,0,0,0-30-3.61c-17.42,0-23.73,6.91-23.73,21.93Z"/><path d="M978.05,1750.12V1454.51l138.53-.27v50.82c1.44,0,2.87-.08,4.3-.08,39.44,0,81.58,24.91,81.58,94.79v150.35Z"/><path d="M1111.27,1702.17v-96.69c0-6.61-3-10.51-10.51-10.51-7.81,0-22.22,6-31.53,10.81v96.39H1026v-206l42.64-6v76.27c17.72-8.1,35.44-13.51,52.25-13.51,24.93,0,33.63,18.62,33.63,46.84v102.4Z"/><path d="M1203.17,1753.12c-50.69,0-86.09-38-86.09-92.39,0-19.52,4.2-36.3,12.1-49.85l-14.82-84.25,40.61-12.36c18.25-5.56,45-9.29,66.51-9.29,26.27,0,59.5,3,83.44,26.35,23.37,22.79,26.37,53.37,26.37,77.45v141.34h-102.7A115.52,115.52,0,0,1,1203.17,1753.12Z"/><path d="M1247.91,1702.17l-3-9.31c-16.82,9.31-31.83,12.32-41.74,12.32-27,0-38.14-19.52-38.14-44.45,0-29.43,13.51-41.14,43.54-41.14h31.53v-11.11c0-15-2.7-20.12-25.82-20.12a204.13,204.13,0,0,0-39.64,4.21l-5.7-32.43c13.81-4.21,35.73-7.21,52.54-7.21,50.75,0,61.86,15.31,61.86,55.85v93.39Zm-7.81-52.55h-20.72c-9.3,0-12.91,2.4-12.91,10.51s3.3,11.41,11.71,11.41c9,0,15.31-2.1,21.92-5.1Z"/><path d="M1248.92,1750.12V1508h112.37l0,.07a165.27,165.27,0,0,1,30.43-3.08c39.44,0,81.58,24.91,81.58,94.79v150.35Z"/><path d="M1382.14,1702.17v-96.69c0-6.61-3-10.51-10.5-10.51-7.81,0-22.23,5.4-31.54,10.51v96.69h-43.24V1555.93H1329l4.51,11.11c18-8.7,41.44-14.11,58.25-14.11,24.93,0,33.64,18.62,33.64,46.84v102.4Z"/><polygon points="1433 1750.12 1433 1454.24 1719.27 1454.24 1635.82 1599.71 1724.74 1750.12 1433 1750.12"/><path d="M1481,1502.18h45v200h-45Zm50.75,97.89,54-97.89h50.74l-56.15,97.89,60.36,102.1H1590Z"/><rect x="1595.76" y="1443.73" width="139.13" height="306.39"/><path d="M1643.71,1537.62v-45.95H1687v45.95Zm0,164.55V1555.93H1687v146.24Z"/><path d="M557.81,1702.17H500.46l-33.64-151.94-33.93,151.94H375.54l-49.25-200h44.44l33.93,142.94,34.84-142.94h54.95l34.23,142.94,33.63-142.94h44.45Z" style="fill:#29abe2"/><path d="M647,1555.93v96.69c0,6.61,3,10.52,10.51,10.52,7.81,0,22.22-5.41,31.53-10.52v-96.69h43.24v146.24H700.16l-4.5-11.11c-18,8.71-41.44,14.12-58.26,14.12-24.92,0-33.63-18.62-33.63-46.85v-102.4Z" style="fill:#29abe2"/><path d="M872.23,1542.12v160.05h-45V1542.12H773.44v-39.94H926v39.94Z" style="fill:#29abe2"/><path d="M960.82,1646.32c0,15,6.31,21.92,23.73,21.92a124.61,124.61,0,0,0,30-3.6l5.41,36c-14.71,3.3-25.22,4.51-35.43,4.51-47.45,0-67-17.72-67-59.46v-33.33c0-41.74,19.52-59.46,67-59.46,10.21,0,20.72,1.2,35.43,4.5l-5.41,36a151.67,151.67,0,0,0-30-3.61c-17.42,0-23.73,6.91-23.73,21.93Z" style="fill:#29abe2"/><path d="M1111.27,1702.17v-96.69c0-6.61-3-10.51-10.51-10.51-7.81,0-22.22,6-31.53,10.81v96.39H1026v-206l42.64-6v76.27c17.72-8.1,35.44-13.51,52.25-13.51,24.93,0,33.63,18.62,33.63,46.84v102.4Z" style="fill:#29abe2"/><path d="M1247.91,1702.17l-3-9.31c-16.82,9.31-31.83,12.32-41.74,12.32-27,0-38.14-19.52-38.14-44.45,0-29.43,13.51-41.14,43.54-41.14h31.53v-11.11c0-15-2.7-20.12-25.82-20.12a204.13,204.13,0,0,0-39.64,4.21l-5.7-32.43c13.81-4.21,35.73-7.21,52.54-7.21,50.75,0,61.86,15.31,61.86,55.85v93.39Zm-7.81-52.55h-20.72c-9.3,0-12.91,2.4-12.91,10.51s3.3,11.41,11.71,11.41c9,0,15.31-2.1,21.92-5.1Z" style="fill:#29abe2"/><path d="M1382.14,1702.17v-96.69c0-6.61-3-10.51-10.5-10.51-7.81,0-22.23,5.4-31.54,10.51v96.69h-43.24V1555.93H1329l4.51,11.11c18-8.7,41.44-14.11,58.25-14.11,24.93,0,33.64,18.62,33.64,46.84v102.4Z" style="fill:#29abe2"/><path d="M1481,1502.18h45v200h-45Zm50.75,97.89,54-97.89h50.74l-56.15,97.89,60.36,102.1H1590Z" style="fill:#29abe2"/><path d="M1643.71,1537.62v-45.95H1687v45.95Zm0,164.55V1555.93H1687v146.24Z" style="fill:#29abe2"/></g></svg>